:SAMPLES-PER-SECOND 30
:FRAME-RANGE 1-3549
:FULLY-SPECIFIED
:DEGREES
777
root  -17.046 38.2041 -37.3949 -1.06994 -14.9198 9.58954
RightUpLeg  -23.2854 0.81223 -13.2056
RightLeg  37.1161 -7.43034 -6.25676
RightFoot  -12.8263 0.019291 8.20456
RightToes  -1.11029e-010 1.2921e-014 -6.02303e-014
Spine  13.3897 -0.14384 6.6427
Spine1  2.06231 1.16341 -2.43613
HEad  -0.298662 -19.3477 -3.17496
LeftShoulder1  1.56917 -0.790607 -30.4867
LeftArm  5.17926 1.46433 -32.1145
LeftForeArm  26.3304 -43.5943 -8.86447
LeftHand  -0.353929 0.14774 7.88755
RightShoulder  9.23589 14.4381 44.9753
RightArm  -11.2968 6.28884 10.5324
RightForeArm  19.3715 -8.03189 14.554
RightHand  -0.622133 3.32908 -8.51505
LeftUpLeg  -8.22997 10.92 8.485
LeftLeg  30.0314 7.03107 4.72193
LeftFoot  -12.1235 -0.0217924 -13.737
LeftToes  -1.9349e-011 -1.19469e-011 -2.02219e-012
778
root  -17.8924 39.0614 -37.5811 0.212885 -15.816 8.85089
RightUpLeg  -21.0255 -0.475602 -10.5855
RightLeg  29.6752 -7.30588 -4.71609
RightFoot  -9.08604 -0.17604 5.79954
RightToes  -1.11029e-010 1.2921e-014 -6.02303e-014
Spine  12.6249 0.162003 6.9345
Spine1  1.69894 1.27485 -1.44407
HEad  0.657964 -19.6519 -3.48571
LeftShoulder1  1.51297 -0.791099 -29.1538
LeftArm  3.47872 -0.906818 -30.3382
LeftForeArm  27.5749 -43.8847 -8.87891
LeftHand  -0.376465 0.265776 8.57155
RightShoulder  7.1849 11.3402 42.169
RightArm  -12.4709 2.96456 7.75502
RightForeArm  23.9551 -8.02726 14.0677
RightHand  -0.645496 3.15148 -8.99621
LeftUpLeg  -8.93338 18.509 5.65614
LeftLeg  34.193 5.29782 4.22047
LeftFoot  -10.7302 0.143403 -14.8189
LeftToes  -1.9349e-011 -1.19469e-011 -2.02219e-012
779
root  -18.8049 39.651 -37.7645 1.32012 -16.4399 7.60184
RightUpLeg  -19.4295 -2.62496 -7.35841
RightLeg  24.3183 -5.92885 -3.14523
RightFoot  -5.38537 -0.205925 3.25251
RightToes  -1.11029e-010 1.2921e-014 -6.02303e-014
Spine  11.5169 0.122159 7.13626
Spine1  1.79512 1.0409 -0.725293
HEad  1.60395 -19.3152 -3.46041
LeftShoulder1  1.45615 -0.823772 -27.5367
LeftArm  0.250543 -2.81103 -27.7146
LeftForeArm  26.8717 -44.9119 -9.28775
LeftHand  -0.359205 0.653854 8.80982
RightShoulder  5.73488 9.06497 39.5693
RightArm  -10.5274 0.542123 5.20525
RightForeArm  28.6198 -7.84195 14.3133
RightHand  -0.681045 3.21644 -9.40973
LeftUpLeg  -9.00614 23.9148 2.95654
LeftLeg  37.2774 2.4631 2.38233
LeftFoot  -9.58013 0.294234 -15.3479
LeftToes  -1.9349e-011 -1.19469e-011 -2.02219e-012
780
root  -19.6965 39.9651 -38.0237 3.28505 -18.1441 6.26514
RightUpLeg  -21.6365 -7.52093 -3.69393
RightLeg  23.6925 -0.334367 -0.384835
RightFoot  -1.51431 -0.149941 1.6234
RightToes  -1.11029e-010 1.2921e-014 -6.02303e-014
Spine  9.91678 -0.0494057 7.23839
Spine1  1.61184 0.764846 -0.945958
HEad  2.36293 -17.7058 -3.18457
LeftShoulder1  1.43333 -0.920824 -26.2421
LeftArm  -4.11951 -3.60768 -23.8367
LeftForeArm  26.1079 -46.494 -9.92722
LeftHand  -0.333671 1.20607 9.20015
RightShoulder  5.24992 8.4895 37.7941
RightArm  -11.2392 0.115793 3.55829
RightForeArm  30.8781 -7.81379 14.1676
RightHand  -0.780969 2.73373 -11.3533
LeftUpLeg  -9.05169 27.8789 -0.366382
LeftLeg  35.9093 -3.54675 -2.3927
LeftFoot  -9.63621 0.374677 -21.112
LeftToes  -1.9349e-011 -1.19469e-011 -2.02219e-012
781
root  -20.5628 40.0252 -38.358 5.48657 -21.9026 4.33093
RightUpLeg  -26.8815 -12.6889 0.707144
RightLeg  28.2346 8.34566 4.60801
RightFoot  3.53514 -0.534391 4.27586
RightToes  -1.11029e-010 1.2921e-014 -6.02303e-014
Spine  9.99419 -0.0282325 7.02452
Spine1  0.0481479 0.859741 -1.67225
HEad  2.15754 -14.5145 -2.16664
LeftShoulder1  1.35338 -0.772243 -25.4671
LeftArm  -9.49875 -2.6233 -20.2424
LeftForeArm  26.7452 -48.8711 -10.8332
LeftHand  -0.315317 1.74596 9.91356
RightShoulder  5.57459 9.43309 37.1254
RightArm  -15.1599 2.4587 3.16387
RightForeArm  32.1644 -7.903 13.3022
RightHand  -0.764021 1.92814 -12.2732
LeftUpLeg  -8.09118 31.2771 -2.90233
LeftLeg  30.2457 -13.4516 -8.01085
LeftFoot  -11.8459 -0.0530939 -27.5159
LeftToes  -1.9349e-011 -1.19469e-011 -2.02219e-012
782
root  -21.5821 39.4087 -38.645 5.94614 -26.7292 3.53653
RightUpLeg  -32.0742 -12.4321 1.10387
RightLeg  37.3003 13.8554 10.8543
RightFoot  3.21145 -3.516 27.2281
RightToes  -1.11029e-010 1.2921e-014 -6.02303e-014
Spine  10.2489 0.286051 3.17
Spine1  -0.3974 1.26652 -2.25831
HEad  0.458991 -10.5246 -0.417803
LeftShoulder1  1.23407 -0.440294 -25.0866
LeftArm  -15.4139 -0.890751 -17.9639
LeftForeArm  28.893 -52.7562 -12.447
LeftHand  -0.297495 1.96399 9.90961
RightShoulder  6.69221 11.7697 37.8079
RightArm  -15.9699 4.10712 3.46439
RightForeArm  29.9944 -7.9416 13.2613
RightHand  -0.676666 2.24652 -10.4662
LeftUpLeg  -7.30274 32.2612 -5.36345
LeftLeg  26.9841 -15.1072 -7.86633
LeftFoot  -14.3548 -0.383882 -17.722
LeftToes  -1.9349e-011 -1.19469e-011 -2.02219e-012
783
root  -22.6747 38.5304 -38.8855 5.4908 -28.787 1.38919
RightUpLeg  -35.4393 -11.1452 0.308405
RightLeg  47.0389 15.4232 16.7672
RightFoot  2.65363 -4.79953 37.9044
RightToes  -1.11029e-010 1.2921e-014 -6.02303e-014
Spine  10.9931 -0.203788 1.44683
Spine1  -0.244307 0.670882 -2.1112
HEad  -0.316143 -6.86274 0.274964
LeftShoulder1  1.2273 -0.36785 -25.5139
LeftArm  -18.7645 0.260092 -16.3768
LeftForeArm  30.5734 -57.35 -14.9122
LeftHand  -0.258898 2.26827 9.38338
RightShoulder  7.6796 13.3518 39.4678
RightArm  -11.9382 4.8914 4.0708
RightForeArm  26.1691 -7.86193 14.4876
RightHand  -0.632145 2.70809 -9.26693
LeftUpLeg  -4.85754 28.0376 -3.64919
LeftLeg  25.4112 -5.59335 -3.16216
LeftFoot  -21.4673 -0.236454 -4.12069
LeftToes  -1.9349e-011 -1.19469e-011 -2.02219e-012
784
root  -23.857 37.8413 -39.2652 3.82779 -28.8599 2.01337
RightUpLeg  -37.6416 -9.19541 -5.01923
RightLeg  51.9642 10.4116 13.6236
RightFoot  1.74634 -3.85054 32.8102
RightToes  -1.11029e-010 1.2921e-014 -6.02303e-014
Spine  12.9158 -0.174973 -2.39365
Spine1  -1.8764 0.138129 -1.52538
HEad  -0.496991 -5.47635 0.686031
LeftShoulder1  1.21422 -0.28772 -25.8508
LeftArm  -18.0847 -0.996204 -18.0282
LeftForeArm  32.18 -58.5175 -15.5353
LeftHand  -0.214001 3.01437 10.0022
RightShoulder  7.44538 12.18 41.2895
RightArm  -9.68815 5.2844 5.56507
RightForeArm  25.0147 -6.61772 14.4951
RightHand  -0.633276 3.12584 -8.85576
LeftUpLeg  -2.77574 23.5826 -2.02546
LeftLeg  25.8957 -1.45918 -1.95042
LeftFoot  -27.4622 -0.437146 -4.25128
LeftToes  -1.9349e-011 -1.19469e-011 -2.02219e-012
785
root  -24.9617 37.4819 -39.4835 2.92783 -26.7918 3.54779
RightUpLeg  -37.6817 -8.90867 -11.9708
RightLeg  50.4963 4.12252 5.00953
RightFoot  1.67736 -2.71774 23.6077
RightToes  -1.11029e-010 1.2921e-014 -6.02303e-014
Spine  12.8566 -0.589548 -3.97679
Spine1  -1.25381 -0.505342 -2.03027
HEad  -1.74215 -6.20303 0.390632
LeftShoulder1  1.31446 -0.507002 -26.6295
LeftArm  -14.7373 -3.36135 -22.1846
LeftForeArm  33.0943 -56.4502 -14.1098
LeftHand  -0.248378 2.51773 9.73837
RightShoulder  6.67086 9.82119 43.7198
RightArm  -1.99466 3.56168 7.27078
RightForeArm  18.3222 6.11381 13.9696
RightHand  -0.570105 2.99701 -8.11211
LeftUpLeg  -3.61337 20.9161 -2.38282
LeftLeg  28.3876 -0.961472 -0.18183
LeftFoot  -28.6509 -0.640419 -5.33682
LeftToes  -1.9349e-011 -1.19469e-011 -2.02219e-012
